<mxfile host="app.diagrams.net" modified="2024-06-26T14:30:40.608Z" agent="Mozilla/5.0 (Windows NT 10.0; Win64; x64; rv:127.0) Gecko/20100101 Firefox/127.0" version="24.6.3" etag="1mGQ7pku2my5WRfa7Kxp" type="github">
  <diagram name="Page-1" id="__SqRaQjzSsrvMSjWcL1">
    <mxGraphModel>
      <root>
        <mxCell id="0" />
        <mxCell id="1" parent="0" />
      </root>
    </mxGraphModel>
  </diagram>
</mxfile>
